<svg width="56" height="56" viewBox="0 0 56 56" xmlns="http://www.w3.org/2000/svg"><g clip-path="url(#akq3kzgqd)"><path fill="#204489" d="M0 0h56v56H0z"/><path d="m42.31 19 3.94 3.53c-.77 3.29-3.95 6.28-6.66 6.94l1.01 6.73-4.44.88 4.24.4-.4.68L38.89 40l-.91-.2-2.62-.48 1.4 1.27.71.59s-1.3.97-3.93 0c-.3-.1-.6-.2-.9-.4-.4-.19-.81-.39-1.11-.58-2.22-1.17-2.83-1.66-2.83-1.66s.7-3.03 3.73-4.4c3.03-1.27 4.34-1.85 4.34-1.85s-1-1.17-3.13-.5c-2.11.7-5.84 2.16-5.84 2.16-.2-.1-3.63-1.56-5.65-2.25-2.12-.78-3.12.49-3.12.49s1.3.49 4.33 1.86a6.6 6.6 0 0 1 3.73 4.4s-.5.38-2.42 1.46c-.18.08-.38.2-.6.31l-.91.47c-3.13 1.66-4.84.3-4.84.3l1.31-1.18.8-.69-1.4.4-1.62.48-1.91-2.73 4.33-.49-4.33-.88 1-6.74c-5.24-1.27-6.75-6.64-6.75-6.64L14.18 19l2.21.87c1.31 5.66 7.07 2.37 7.07 2.37l-.6-2.25s-7.71-3.9-7.61-3.9v-4.1c.9-1.67 5.9-4.99 5.9-4.99l7.05 3.71 7.16-3.61c.1 0 4.98 3.32 5.89 4.98v4.1l-7 3.9-.6 2.45s5.14 2.54 6.45-2.64L42.3 19ZM26.18 41.38l2.12-1.07h.1l5.65 2.93c.8 2.24-1.31 4-1.31 4l-.7-1.56-2.23 1.95L28.3 49l-3.63-3.32-.7 1.56s-2.12-1.76-1.32-4l3.53-1.86Z" fill="#fff"/></g><defs><clipPath id="akq3kzgqd"><rect width="56" height="56" rx="8"/></clipPath></defs></svg>