<svg xmlns="http://www.w3.org/2000/svg" viewBox="0 0 56 56"><path d="M48 56H8a8 8 0 0 1-8-8V8a8 8 0 0 1 8-8h40a8 8 0 0 1 8 8v40a8 8 0 0 1-8 8z" fill="#3d7f7a"/><path d="M56 28.29c-5 1.8-10.35 3.83-16.02 6.15v-3.52A747.21 747.21 0 0 1 56 27.15v-4.67L39.98 8.6V6.91h-2.51v1.15l-5.46.66v-.71H29.5v1.93C23.82 31.94.69 39.85.46 39.93v.01L0 40.1v2.65l1.24-.45v.01c.11-.04.48-.16 1.07-.39a360.61 360.61 0 0 1 25-7.7c-7.85 8.72-18.46 14.31-25 17.77l-.93.49a8 8 0 0 0 1.89 1.96A402.96 402.96 0 0 1 29.5 41.63V56h2.51V40.52c1.85-.81 3.67-1.59 5.46-2.34V56h2.51V37.14A412.92 412.92 0 0 1 56 30.95v-2.66zM39.98 11.92l14.91 12.92-4.14.94-10.77-9.34v-4.52zm0 7.83l7.76 6.73c-2.56.6-5.15 1.22-7.76 1.87v-8.6zM29.5 38.89c-2.24.99-4.52 2.01-6.82 3.08a60.2 60.2 0 0 0 6.82-6.57v3.49zm0-7.85a445.02 445.02 0 0 0-15.24 4.34c5.49-3.94 11.47-9.77 15.24-17.98v13.64zm7.94-20.45a33.66 33.66 0 0 1-.29 3.39l-3.4-2.95 3.69-.44zm-5.43 2.25l4.63 4.02a35.77 35.77 0 0 1-4.63 11.17V12.84zm5.46 22.63c-1.8.75-3.61 1.52-5.46 2.32v-4.83l5.46-1.41v3.92zm0-6.5l-3.8.97a39.89 39.89 0 0 0 3.8-7.35v6.38z" fill="#fff"/></svg>