<?xml version="1.0" encoding="utf-8"?>
<!-- Generator: Adobe Illustrator 26.1.0, SVG Export Plug-In . SVG Version: 6.00 Build 0)  -->
<svg version="1.1" id="Layer_1" xmlns="http://www.w3.org/2000/svg" xmlns:xlink="http://www.w3.org/1999/xlink" x="0px" y="0px"
	 viewBox="0 0 73.1 53.9" style="enable-background:new 0 0 73.1 53.9;" xml:space="preserve">
<style type="text/css">
	.st0{fill:url(#SVGID_1_);}
	.st1{fill:none;}
	.st2{fill:url(#SVGID_00000114771254957827706890000007102511627481453754_);}
	.st3{fill:url(#SVGID_00000049218539740906533000000001232673325775819137_);}
	.st4{fill:url(#SVGID_00000045592803307599668710000004510962953540115348_);}
</style>
<linearGradient id="SVGID_1_" gradientUnits="userSpaceOnUse" x1="16.4675" y1="20.0409" x2="66.1675" y2="48.7308" gradientTransform="matrix(1 0 0 -1 0 55.2598)">
	<stop  offset="0" style="stop-color:#00D7E4"/>
	<stop  offset="0.22" style="stop-color:#2298EB"/>
	<stop  offset="0.49" style="stop-color:#3943FB"/>
	<stop  offset="1" style="stop-color:#FF03FF"/>
</linearGradient>
<path class="st0" d="M61.4,51.1l11.4-28.8c0.2-0.4,0.3-0.8,0.3-1.2c0-0.1,0-0.3,0-0.5c0-0.5-0.1-1.1-0.3-1.6
	c-0.2-0.5-0.5-0.9-0.9-1.3c-0.4-0.4-0.8-0.7-1.3-0.9c-0.5-0.2-1-0.3-1.6-0.3l0,0l-9.5-0.1l4.2-10.7C64,5.3,64,4.9,64.1,4.6
	c0.1-0.6,0-1.1-0.2-1.7c-0.2-0.5-0.5-1.1-0.8-1.5c-0.4-0.4-0.8-0.8-1.4-1C61.2,0.1,60.7,0,60.1,0h-56c-0.7,0-1.4,0.2-2,0.5H2L2,0.6
	C1.1,1.2,0.4,2.1,0.2,3.1c-0.3,1-0.1,2.1,0.4,3.1l8.9,16.2c0.4,0.7,0.9,1.2,1.6,1.5h0.1c0.6,0.3,1.2,0.5,1.9,0.5h34.6l-2.3,6H21
	c-0.7,0-1.4,0.2-2,0.5h-0.1c-0.9,0.6-1.6,1.4-1.9,2.5c-0.3,1-0.1,2.1,0.4,3.1l8.6,15.3c0.4,0.7,0.9,1.2,1.6,1.6
	c0.6,0.3,1.3,0.5,2,0.5h27.9c0.9,0,1.7-0.3,2.4-0.8C60.7,52.6,61.2,51.8,61.4,51.1L61.4,51.1z M15.5,16.3l-4.3-8.2H54l-3.2,8.2
	L15.5,16.3z M54.8,45.8H32.1L28,38.5h20.2c0.9,0,1.8-0.3,2.5-0.8c0.7-0.5,1.2-1.3,1.5-2.2l0,0l4.3-11l6.3,0.1L54.8,45.8z"/>
<path class="st1" d="M52.2,10.9h15v20h-15V10.9z"/>
<linearGradient id="SVGID_00000118372824431519222050000005650034744863397551_" gradientUnits="userSpaceOnUse" x1="55.4199" y1="34.9998" x2="59.8499" y2="34.9998" gradientTransform="matrix(1 0 0 -1 0 55.2598)">
	<stop  offset="0" style="stop-color:#03ADEF"/>
	<stop  offset="0.52" style="stop-color:#3943FB"/>
	<stop  offset="1" style="stop-color:#FF03FF"/>
</linearGradient>
<path style="fill:url(#SVGID_00000118372824431519222050000005650034744863397551_);" d="M59.8,16l-3.5,8.6h-1l2.9-8.5L59.8,16z"/>
<linearGradient id="SVGID_00000131360793543958484310000018231308493445694083_" gradientUnits="userSpaceOnUse" x1="0" y1="51.1198" x2="64.19" y2="51.1198" gradientTransform="matrix(1 0 0 -1 0 55.2598)">
	<stop  offset="0" style="stop-color:#00DAE4"/>
	<stop  offset="7.000000e-02" style="stop-color:#04CFE7"/>
	<stop  offset="0.19" style="stop-color:#0EB1ED"/>
	<stop  offset="0.34" style="stop-color:#1E80F8"/>
	<stop  offset="0.38" style="stop-color:#2373FB"/>
	<stop  offset="0.64" style="stop-color:#A022FD"/>
	<stop  offset="0.83" style="stop-color:#F207FF"/>
	<stop  offset="1" style="stop-color:#FF03FF"/>
</linearGradient>
<path style="fill:url(#SVGID_00000131360793543958484310000018231308493445694083_);" d="M60,0H4.1C1.9,0,0,1.9,0,4.1
	s1.9,4.1,4.1,4.1H60c2.3,0,4.1-1.9,4.1-4.1S62.3,0,60,0z"/>
<linearGradient id="SVGID_00000037673754032109849440000008358650366003491714_" gradientUnits="userSpaceOnUse" x1="54.1031" y1="53.7198" x2="54.1031" y2="15.2098" gradientTransform="matrix(1 0 0 -1 0 55.2598)">
	<stop  offset="0" style="stop-color:#F508FF"/>
	<stop  offset="0.17" style="stop-color:#F305FE"/>
	<stop  offset="0.52" style="stop-color:#832BFD"/>
	<stop  offset="0.8" style="stop-color:#3551F8"/>
	<stop  offset="1" style="stop-color:#2F63F5"/>
</linearGradient>
<path style="fill:url(#SVGID_00000037673754032109849440000008358650366003491714_);" d="M48.2,38.4c-0.5,0-1-0.1-1.5-0.3
	c-0.5-0.2-1-0.5-1.4-0.9c-0.4-0.4-0.7-0.9-0.9-1.4c-0.2-0.5-0.3-1.1-0.3-1.6c0-0.6,0.1-1.1,0.4-1.6L56.1,2.8c0.2-0.5,0.4-1,0.8-1.4
	c0.4-0.4,0.8-0.7,1.3-1c0.5-0.2,1-0.4,1.6-0.4c0.5,0,1.1,0.1,1.6,0.3c0.5,0.2,1,0.5,1.4,0.9c0.4,0.4,0.7,0.8,1,1.4
	c0.2,0.5,0.4,1.1,0.4,1.6S64,5.4,63.8,5.9L52.2,35.6c-0.3,0.8-0.9,1.5-1.6,2S49.1,38.4,48.2,38.4L48.2,38.4z"/>
</svg>
